# xmcd
#
# Track frame offsets: 
#        150
#        2274
#        16115
#        37570
#        52804
#        66610
#        76982
#        93588
#        105208
#        118376
#        133262
#        151039
#        160450
#        178443
#        189249
#        200883
#        212567
#        228458
#        243381
#        254079
#        268991
#
# Disc length: 3832 seconds
#
# Revision: 5
# Processed by: cddbd v1.5.2PL0 Copyright (c) Steve Scherf et al.
# Submitted via: ExactAudioCopy v0.99pb5
#
DISCID=210ef615
DTITLE=Various Artist - 20 Jazz Greats CD 2 (Backing Tracks)
DYEAR=2001
DGENRE=Jazz
TTITLE0=Tuning Notes
TTITLE1=Fever
TTITLE2=Bésame Mucho
TTITLE3=Fly Me To The Moon (In Other Words)
TTITLE4=God Bless' The Child
TTITLE5=Flying Home
TTITLE6=Harlem Nocturne
TTITLE7=Hit The Road Jack
TTITLE8=I Wish I Knew How It Would Feel To Be Free
TTITLE9=Is You Is Or Is You Ain't My Baby
TTITLE10=I'm Gettin' Sentimental Over You
TTITLE11=Jump, Jive An' Wail
TTITLE12=Li'l Darlin'
TTITLE13=Mas Que Nada
TTITLE14=Perdido
TTITLE15=Perhaps, Perhaps, Perhaps (Quizas, Quizas, Quizas)
TTITLE16=Satin Doll
TTITLE17=Straight No Chaser
TTITLE18=Sway (Quien Sera)
TTITLE19=Take The 'A' Train
TTITLE20=The Girl From Ipanema (Garota De Ipanema)
EXTD=YEAR: 2001
EXTT0=
EXTT1=
EXTT2=
EXTT3=
EXTT4=
EXTT5=
EXTT6=
EXTT7=
EXTT8=
EXTT9=
EXTT10=
EXTT11=
EXTT12=
EXTT13=
EXTT14=
EXTT15=
EXTT16=
EXTT17=
EXTT18=
EXTT19=
EXTT20=
PLAYORDER=
